<?xml version="1.0" encoding="utf-8"?>
<!-- Generator: Adobe Illustrator 27.9.0, SVG Export Plug-In . SVG Version: 6.00 Build 0)  -->
<svg version="1.1" id="Layer_1" xmlns="http://www.w3.org/2000/svg" xmlns:xlink="http://www.w3.org/1999/xlink" x="0px" y="0px"
	 viewBox="0 0 50 50" style="enable-background:new 0 0 50 50;" xml:space="preserve">
<style type="text/css">
	.st0{fill:#5B2D03;stroke:#FFF2E1;stroke-width:0.5;stroke-miterlimit:10;}
</style>
<g id="OBJECTS">
	<path class="st0" d="M37.4,17.8c0.4,0.1,0.7,0.4,0.9,0.7c-0.2-0.1-0.5-0.1-0.7,0c0.4,0.2,0.7,0.4,1.1,0.7c-0.2,0-0.4-0.1-0.6,0
		c0.4,0.2,0.7,0.5,0.9,0.9c-0.2-0.1-0.5-0.2-0.7-0.2c0.4,0.2,0.7,0.4,1,0.7c-0.2,0-0.4-0.1-0.7,0c0.7,0.5,1,0.5,1.3,1
		c-1.5,0-0.1,0,0.6,1c-0.3-0.2-0.6-0.3-0.9-0.3c0.4,0.3,0.9,0.5,1.1,1c-0.3-0.1-0.6,0-0.8,0.2c0.4,0.1,0.8,0.2,0.8,0.4
		c0.2,0.3,0.6,1,0.9,0.7c0.2-0.1,0-0.4,0-0.6c0-0.3,0.4-0.4,0.6-0.2c1,0.7-0.5,4.2-1.2,3c0,0.2,0.1,0.3,0.2,0.5
		c-0.4,0-0.7-0.3-0.9-0.6c0,0.2,0,0.4,0.1,0.6c-0.6-0.2-0.8-0.7-1.2-1.1c0,0.3,0,0.6,0.2,0.8c-0.4-0.4-0.7-0.8-0.9-1.3
		c-0.1,0.3,0,0.6,0.2,0.9c-0.4-0.4-0.7-0.9-0.9-1.5c-0.1,0.3-0.1,0.6,0,0.9c-0.3-0.5-0.6-1.1-0.7-1.7c-0.1,0.3-0.1,0.6,0,0.9
		c-0.4-0.6-0.6-1.3-0.7-2.1c-0.2,0.3-0.2,0.7-0.1,1.1c-0.4-0.6-0.6-1.3-0.7-2c-0.5,0.7,0.2,1.2-0.9-0.7c-0.4-0.7-1.1-1-1.2-1
		c-0.1,0-0.1,0.3,0,0.4c0.5,0.3,0.8,0.7,1.1,1.2c-1.3-0.7,0.8,0.8,0.5,0.9c-0.2-0.1-0.4-0.2-0.6-0.2c0.4,0.3,0.7,0.7,0.9,1.1
		c-0.1-0.1-0.2-0.1-0.3-0.1c0.2,0.3,0.4,0.6,0.5,1c-0.6-0.3-0.2-0.3-0.1,1c-0.7-0.6-0.1-0.4-0.2,1.3c-0.5-0.8-0.2-0.4-0.5,1
		c0-0.2-0.1-0.4-0.2-0.6c0,0.6-0.2,1.1-0.4,1.7c0-0.3-0.2-0.5-0.3-0.7c-0.4,1.4,0.4,2.2-0.5,0.7c0,1.6,0.9,2.8-0.2,1.3
		c0,0.7,0.2,1.4,0.6,2c-0.2-0.2-0.4-0.4-0.6-0.6c0.2,1.3,1.6,1.7-0.3,0.7c0.4,1.4,1.6,1.3,0.3,1.2c0.5,0.4,1.2,0.6,1.8,0.6
		c-1.5,0.4-0.7,0,0.9,0.4c-0.4,0-0.7,0.1-0.9,0.4c0.5-0.1,1.1,0,1.5,0.4c-0.2,0-0.3,0.1-0.5,0.2c0.5,0.1,0.9,0.4,1.3,0.7
		c-1.7-0.1-0.2,0.1,0.5,0.9c-0.2-0.1-0.5-0.1-0.8-0.1c0.4,0.2,0.8,0.4,1.1,0.8c-0.2-0.1-0.3-0.1-0.5-0.2c0.2,0.5,0.9,0.5,1.1,0.9
		c-0.2,0-0.4,0-0.7,0c0.4,0.3,0.8,0.6,1.2,0.7c-0.3,0-0.5,0-0.8,0c0.4,0.3,0.9,0.5,1.5,0.5C39.6,40,39.2,40,38.9,40
		c0.4,0.2,0.9,0.3,1.3,0.4c-0.1,0.2-0.5,0.3-0.7,0.2c0.1,0.1,0.1,0,0.2,0.1c1.1,1.9-1,2.6-3.2,3.2c-0.9,0.3-1.9-0.1-2.9-0.1
		c-0.3,0-0.6,0-0.9,0c-0.9-0.1-1-0.9-0.7-1.2c0.3-0.2,0.6,0,0.9,0c0.2,0,1.7-0.2,1.9-0.6c-0.1,0.1-0.3,0.1-0.4,0
		c0.4-0.2,0.8-0.6,0.8-1.1c-0.2,0.2-0.4,0.5-0.7,0.6c0.3-0.3,0.4-0.8,0.3-1.2c-0.1,0.4-0.4,0.7-0.7,1c0.1-0.6,0.3-1.2,0-1.7
		c0,0.3-0.1,0.6-0.3,0.7c0.1-0.5,0-1.1-0.4-1.5c-0.4,1.3,0,0.5-0.7-0.3c0,0.3,0,0.5-0.2,0.8c-0.7-2-0.2-1.2-0.7-0.5
		c-0.1-0.6-0.3-1.1-0.6-1.7c0,1.9,0.2,0.4-0.9-0.7c0,0.9,0.5,2.4-0.7-0.7c-0.1,0.4,0,0.7,0,1.1c-0.4-0.6-0.6-1.3-0.8-2
		c-0.2,0.4-0.2,0.8-0.1,1.2c-0.3-0.7-0.5-1.4-0.6-2.1c-0.2,0.3-0.2,0.6-0.2,0.9c-0.2-0.6-0.4-1.3-0.4-2c-0.1,0.3-0.2,0.5-0.2,0.8
		c-0.2-0.7-0.3-1.5-0.2-2.2c-0.8,1-0.7,1.7-0.6,0.3c-1.1,1.1-0.8,1.9-0.9,0.4c-0.7,1.3,0.1,2.5-0.7,1c0.1,0.6,0.2,1.2,0.4,1.8
		c-1-0.7-0.1-0.3-0.1,1.2c-0.1-0.2-0.2-0.4-0.4-0.4c0.2,0.6,0.3,1.2,0.1,1.8c0-0.3-0.2-0.5-0.4-0.7c0.1,0.7,0,1.3-0.2,2
		c0-0.3-0.1-0.6-0.3-0.9c0.1,0.6,0,1.1-0.2,1.7c-0.1-0.3-0.2-0.6-0.5-0.8c0.1,0.6,0.2,1.2,0.2,1.8c-0.1-0.2-0.2-0.5-0.4-0.6
		c0.5,2.1,0.5,1.9,0,1.2c0,0.4,0.1,0.8,0.3,1.2c-0.2-0.1-0.4-0.3-0.5-0.5c-0.1,0.6,0.1,1.1,0.4,1.5c-1-0.4-0.8-1.5-0.8,0.3
		c0.1,2.2-4,0.1-5.6,0c-0.1,0-1.9,0.2-2.1-0.9c-0.1-0.7,0.6-1.4,1.2-1.1c1.2,0.7,3,0,3.6-0.8C19.6,41,19.3,41.1,19,41
		c0.5-0.2,0.9-0.6,1-1.1c-0.3,0.3-0.6,0.4-1,0.5c0.5-0.3,0.9-0.9,1-1.5c-0.2,0.3-0.5,0.6-0.9,0.7c0.4-0.5,0.6-1,0.7-1.6
		c-1.2,1.8-0.3-0.6,0.2-1.3c-0.3,0.2-0.5,0.4-0.7,0.6c0.1-0.6,0.4-1.3,0.7-1.8c-0.2,0.2-0.5,0.4-0.7,0.6c0.1-0.7,0.4-0.8,1.1-2.2
		c-0.3,0.2-0.6,0.5-0.9,0.7c0.2-0.8,0.6-1.5,1-2.2c-0.3,0.2-0.6,0.4-0.9,0.6c0.3-0.8,0.9-1.5,1.5-2c-0.4,0.1-0.8,0.3-1.1,0.5
		c0.6-0.6,2.3-2.6,0.4-1.1c0.6-0.8,1.3-1.5,2.1-2.1c-0.4,0.1-0.9,0.2-1.3,0.4c0.5-0.7,1.1-1.3,1.9-1.6c-0.4,0-0.8,0.1-1.1,0.4
		c0.5-0.7,1.1-1.2,1.8-1.6c-0.4,0-0.7,0.1-1.1,0.2c0.4-0.5,0.9-0.8,1.5-1.1c-1-0.1-1.7,1.3,0.6-1.8c-1.4,0.8-0.1,0.2-0.3-1.1
		c-0.1,0.3-0.3,0.6-0.6,0.8c0.1-0.6,0.3-1.2,0-1.6c0,0.3-0.1,0.6-0.3,0.9c0-0.5,0-0.9-0.3-1.3c0,0.2,0,0.4,0,0.6
		c-0.3-1.2-1-1.4-0.9-1.7c0,0.5-0.1,0.9-0.3,1.3c-0.3-2,0.1-0.4-0.7,0.3c0-0.2,0-0.5,0-0.7c-0.1,0.5-0.3,0.9-0.6,1.3
		c0.1-0.2,0.1-0.4,0-0.6c-0.8,0.9-0.7,1.5-0.8,0.3c-0.3,0.3-0.5,0.7-0.7,1.1c-0.1-0.2-0.2-0.5-0.2-0.8c-0.3,0.4-0.6,0.8-0.6,1.3
		c-0.1-0.2-0.2-0.6,0-0.8c-0.3,0.4-0.8,1.2-1,1c0.2-0.3,0.2-0.6,0.1-0.9c-0.2,0.4-0.5,0.8-0.8,1.1c0.1-0.2,0.1-0.5,0.1-0.7
		c-0.2,0.4-0.4,0.7-0.6,0.9c0-0.5-0.4-0.7-0.6-0.5c0.4,0.8-0.1,1.3-0.4,1.1c-0.3-0.1-0.1-0.6-0.4-0.8s-0.6,0.1-0.5,0.5
		c0.1,0.4,0.5,0.3,0.7,0.6c0.2,0.3-0.1,0.6-0.4,0.7c-0.5,0.1-1.8-0.4-2.1-1c-0.3-0.6,0.1-2.7,0.6-2.7c-0.3,0-0.6,0-0.9,0.2
		c0.1-0.2,0.4-0.4,0.7-0.4c1.1-0.3,1.1-0.1,0.3-0.4c0.1,0,0.6-0.2,1.1-0.2c1.1,0,0.8,0.2,0.6-0.2c1.2-0.2,0.7,0,0.3-0.4
		c0.3,0,0.6-0.2,0.9-0.3c-0.2,0-0.3-0.1-0.4-0.2c0.3,0,0.6-0.1,0.9-0.2c-0.2,0-0.4-0.1-0.6-0.2c0.3,0,0.6-0.1,0.8-0.2
		c-0.2,0-0.3,0-0.5-0.1c0.4,0,0.6-0.1,1.4-0.6c-0.3,0-0.6,0-0.9,0.1c0.5-0.4,1-0.6,1.5-0.7c-0.3-0.1-0.7,0-1,0
		c0.8-0.5,1.4-0.3,1.7-0.7c-0.2,0-0.4-0.1-0.6-0.2c0.4,0,0.9-0.3,1.2-0.6c-0.3,0.2-0.7,0.2-1,0.1c0.5-0.3,0.9-0.7,1.1-1.1
		c-0.2,0.2-0.4,0.3-0.7,0.3c0.5-0.4,0.9-0.7,1.1-1.3c-0.1,0.2-0.4,0.4-0.6,0.5c0.4-0.3,0.6-0.8,0.7-1.3c-0.2,0.2-0.3,0.4-0.5,0.6
		c0.1-0.5,0.3-0.9,0.5-1.4c-0.2,0.1-0.3,0.3-0.4,0.5c0.2-2,2.3-2.3,0.9-1.8c-0.1,0-0.2,0-0.1-0.1c0.1-0.2,0.3-0.3,0.2-0.5
		c-0.2,0.2-0.4,0.3-0.7,0.3c0.4-0.4,0.7-0.7,0.6-0.8c-0.2,0.2-0.6,0.3-0.4,0c0.7-1.1,0-0.6-0.1-1.6c0-0.4,0-0.3-0.3-0.5
		c-0.6-0.4-0.3-1.1,0-1.6C20,7.1,19.7,7.2,19.5,7c0.3-0.1,0.6-0.3,0.7-0.6c-0.2,0-0.4,0.1-0.7,0c0.3-0.1,0.5-0.2,0.7-0.5
		c-0.2,0.1-0.5,0.2-0.7,0c0.3-0.1,0.6-0.2,0.7-0.5c-0.2-0.1-0.3-0.2-0.5-0.2c0.2,0,0.4-0.1,0.7-0.1c0-0.3-0.1-0.5-0.2-0.7
		c0.2-0.1,0.4-0.1,0.5,0c0-0.2-0.1-0.4-0.3-0.6c0.3,0,0.6,0.1,0.7,0.3c0.1-0.3-0.1-0.6-0.3-0.7c0.3-0.2,0.7,0,1,0.2
		c0-0.2,0-0.5,0.1-0.7c1,0.7,0.4,1.1,0.8,0.1C22.8,3.5,22.9,3.7,23,4c0.4-0.6,0.3-0.7,0.5,0.1c0.1-0.2,0.3-0.3,0.4-0.5
		c0,0.2,0,0.5,0,0.7C24,4.2,24.2,4.1,24.3,4c0.1,0.2,0.1,0.6,0,0.8c0.2,0,0.4,0,0.6-0.1c0,0.2,0,0.5-0.2,0.6c0.2,0.1,0.4,0,0.6-0.1
		c0,0.3,0,0.6-0.2,0.8c0.2,0,0.5,0,0.7-0.1c0.2,0.3-0.1,0.6-0.4,0.8c0.8,0.2,1.1-0.4,0.3,0.4C26,7.2,26.3,7.1,26.6,7
		c-0.2,0.1-0.3,0.2-0.4,0.4c0.2,0,1.1-0.2,0.6,0.1c-0.4,0.3,0.3,0.4,0.6,0.2c-0.4,0.9-1.1,0.5,0.7,0.4c0.2,0,0.5,0,0.6,0.2
		c-0.2,0-0.4,0.1-0.6,0.3c0.5,0,0.9,0.1,1.4,0.2c-0.2,0-0.4,0.2-0.6,0.3c0.5,0,0.9,0.1,1.4,0.3c-1.2,0.6-0.2-0.1,1.1,0.9
		c-0.2,0-0.5,0-0.7,0.2c0.9,0,1.6,0.8,1.1,0.6c-0.2-0.1-0.3,0-0.4,0.2c0.4,0.1,0.8,0.3,1.2,0.6c-0.2,0-0.5,0.1-0.7,0.2
		c0.5,0,1,0.3,1.4,0.7c-1.8,0.2-0.5-0.2,0.5,0.9c-0.2,0.1-0.3,0.1-0.5,0.1c0.3,0.4,0.8,0.7,1.2,0.6c-0.2,0.2-0.5,0.4-0.7,0.4
		c0.3,0.1,0.7,0.1,1,0c-0.2,0.2-0.4,0.4-0.6,0.5c0.4,0.1,0.8,0.1,1.1,0c-0.1,0.2-0.4,0.4-0.6,0.6c0.5-0.1,0.9,0,1.3,0.2
		c-0.2,0-0.4,0.2-0.5,0.4c0.5-0.2,1-0.1,1.5,0.2c-0.3,0-0.6,0.1-0.8,0.3c0.5-0.1,1,0,1.3,0.4c-0.3,0-0.7,0.1-0.9,0.3
		c0.5,0,0.9,0,1.4,0.2C37.8,17.6,37.6,17.7,37.4,17.8z"/>
</g>
</svg>
